<svg width="13" height="20" viewBox="0 0 13 20" fill="none" xmlns="http://www.w3.org/2000/svg">
    <path d="M12.6846 12.6798C12.7843 12.7793 12.8637 12.8987 12.9179 13.0308C12.9721 13.1629 13 13.3049 13 13.4485C13 13.5921 12.9721 13.7341 12.9179 13.8662C12.8637 13.9983 12.7843 14.1177 12.6846 14.2172L7.26238 19.6824C7.05728 19.8862 6.78425 20 6.50024 20C6.21623 20 5.9432 19.8862 5.7381 19.6824L0.315916 14.2161C0.216036 14.1166 0.136564 13.9973 0.0822746 13.8652C0.0279853 13.7331 0 13.591 0 13.4474C0 13.3038 0.0279853 13.1616 0.0822746 13.0295C0.136564 12.8975 0.216036 12.7781 0.315916 12.6787C0.520755 12.4744 0.793889 12.3602 1.07806 12.3602C1.36222 12.3602 1.63536 12.4744 1.8402 12.6787L6.4997 17.3774L11.1581 12.6798C11.3632 12.4751 11.6367 12.3607 11.9213 12.3607C12.2059 12.3607 12.4795 12.4751 12.6846 12.6798ZM12.6846 7.31908C12.7843 7.21957 12.8637 7.10019 12.9179 6.96811C12.9721 6.83602 13 6.69394 13 6.55038C13 6.40682 12.9721 6.26474 12.9179 6.13265C12.8637 6.00056 12.7843 5.88119 12.6846 5.78167L7.26238 0.317571C7.05728 0.11377 6.78425 0 6.50024 0C6.21623 0 5.9432 0.11377 5.7381 0.317571L0.315916 5.78167C0.216036 5.8811 0.136564 6.00045 0.0822746 6.13255C0.0279853 6.26465 0 6.40677 0 6.55038C0 6.69398 0.0279853 6.8361 0.0822746 6.9682C0.136564 7.1003 0.216036 7.21965 0.315916 7.31908C0.520755 7.5234 0.793889 7.63752 1.07806 7.63752C1.36222 7.63752 1.63536 7.5234 1.8402 7.31908L6.4997 2.62256L11.1581 7.32021C11.5806 7.74389 12.2631 7.74389 12.6846 7.32021V7.31908Z" fill="#04EBFF"/>
</svg>
