<svg width="10" height="10" viewBox="0 0 10 10" fill="none" xmlns="http://www.w3.org/2000/svg">
    <g clip-path="url(#clip0_192_17)">
        <path d="M5.06392 2.77779C4.87009 2.76708 4.67613 2.79632 4.49407 2.8637C4.31201 2.93107 4.14575 3.03515 4.00559 3.16946C3.87177 3.3078 3.76773 3.4721 3.69989 3.65221C3.63204 3.83233 3.60184 4.02444 3.61114 4.21668H4.25836C4.24357 3.99432 4.30106 3.77314 4.42225 3.58613C4.49404 3.49676 4.58707 3.42681 4.69285 3.38265C4.79863 3.33849 4.91379 3.32154 5.02781 3.33335C5.12141 3.32763 5.21519 3.34092 5.30351 3.37243C5.39183 3.40394 5.47286 3.45301 5.5417 3.51668C5.66376 3.65386 5.72754 3.83323 5.71948 4.01668C5.71637 4.17904 5.65863 4.33562 5.55559 4.46113L5.45281 4.57779C5.18272 4.79314 4.94754 5.04894 4.75559 5.33613C4.67227 5.518 4.63233 5.71674 4.63892 5.91668V6.01946H5.27781V5.91668C5.27484 5.7745 5.30831 5.63393 5.37503 5.50835C5.43794 5.38977 5.52277 5.28419 5.62503 5.19724C5.81212 5.04968 5.99022 4.89106 6.15836 4.72224C6.31689 4.50504 6.39807 4.24098 6.38892 3.97224C6.39687 3.8088 6.36863 3.64562 6.3062 3.49436C6.24378 3.3431 6.14872 3.2075 6.02781 3.09724C5.75835 2.87291 5.41402 2.75879 5.06392 2.77779ZM4.96114 6.35279C4.9036 6.35007 4.84613 6.35955 4.79251 6.38061C4.73889 6.40168 4.69033 6.43385 4.65003 6.47501C4.60596 6.5136 4.5711 6.56158 4.54802 6.61542C4.52495 6.66927 4.51424 6.7276 4.5167 6.78613C4.52027 6.9021 4.5685 7.0122 4.65131 7.09346C4.73413 7.17473 4.84513 7.22086 4.96114 7.22224C5.07774 7.22239 5.19036 7.17991 5.27781 7.10279C5.31958 7.06151 5.35246 7.01213 5.37443 6.95767C5.39641 6.90321 5.40701 6.84483 5.40559 6.78613C5.40856 6.72764 5.39866 6.66922 5.37658 6.61498C5.3545 6.56074 5.32079 6.51201 5.27781 6.47224C5.2348 6.43083 5.18379 6.39864 5.12791 6.37762C5.07203 6.3566 5.01245 6.34721 4.95281 6.35002L4.96114 6.35279Z" fill="#A3A3A5"/>
        <path d="M5 0.555556C5.87903 0.555556 6.73832 0.816218 7.4692 1.30458C8.20009 1.79294 8.76974 2.48707 9.10613 3.29918C9.44252 4.1113 9.53054 5.00493 9.35905 5.86707C9.18756 6.72921 8.76427 7.52113 8.1427 8.1427C7.52113 8.76426 6.72921 9.18756 5.86707 9.35905C5.00493 9.53054 4.1113 9.44252 3.29919 9.10613C2.48707 8.76974 1.79294 8.20009 1.30458 7.4692C0.81622 6.73832 0.555558 5.87903 0.555558 5C0.555558 3.82126 1.02381 2.6908 1.85731 1.8573C2.6908 1.02381 3.82126 0.555556 5 0.555556ZM5 0C4.0111 0 3.0444 0.293245 2.22215 0.842652C1.39991 1.39206 0.759043 2.17295 0.380605 3.08658C0.00216641 4.00021 -0.0968503 5.00555 0.0960758 5.97545C0.289002 6.94536 0.765206 7.83627 1.46447 8.53553C2.16373 9.2348 3.05465 9.711 4.02455 9.90393C4.99446 10.0969 5.99979 9.99784 6.91342 9.6194C7.82705 9.24096 8.60794 8.6001 9.15735 7.77785C9.70676 6.95561 10 5.98891 10 5C10 3.67392 9.47322 2.40215 8.53554 1.46447C7.59785 0.526784 6.32609 0 5 0Z" fill="#A3A3A5"/>
    </g>
    <defs>
        <clipPath id="clip0_192_17">
            <rect width="10" height="10" fill="white"/>
        </clipPath>
    </defs>
</svg>
