<svg width="11" height="10" viewBox="0 0 11 10" fill="none" xmlns="http://www.w3.org/2000/svg">
    <path d="M7.6135 0.836264L4.62925 2.54794H3.12925L7.45525 0.0664925C7.51213 0.0338847 7.57491 0.0127282 7.64002 0.00423104C7.70513 -0.0042661 7.77128 6.26491e-05 7.83471 0.01697C7.89813 0.0338773 7.95758 0.0630321 8.00966 0.102769C8.06175 0.142507 8.10544 0.192048 8.13825 0.248565L9.47425 2.54794L10.5 2.54819C10.6326 2.54819 10.7598 2.60053 10.8536 2.6937C10.9473 2.78686 11 2.91322 11 3.04498V9.50321C11 9.63497 10.9473 9.76133 10.8536 9.85449C10.7598 9.94766 10.6326 10 10.5 10H0.5C0.367392 10 0.240215 9.94766 0.146447 9.85449C0.0526784 9.76133 0 9.63497 0 9.50321V3.04498C3.10801e-09 2.91322 0.0526784 2.78686 0.146447 2.6937C0.240215 2.60053 0.367392 2.54819 0.5 2.54819H8.60825L7.6135 0.836264ZM10.25 3.29337H0.75V4.78373H3C3.19698 4.78373 3.39204 4.82228 3.57403 4.89718C3.75601 4.97208 3.92137 5.08186 4.06066 5.22025C4.19995 5.35864 4.31044 5.52294 4.38582 5.70376C4.4612 5.88458 4.5 6.07838 4.5 6.2741C4.5 6.46981 4.4612 6.66361 4.38582 6.84443C4.31044 7.02525 4.19995 7.18955 4.06066 7.32794C3.92137 7.46633 3.75601 7.57611 3.57403 7.65101C3.39204 7.72591 3.19698 7.76446 3 7.76446H0.75V9.25482H10.25V3.29337ZM3 5.52892H0.75V7.01928H3C3.19523 7.01946 3.38283 6.94401 3.52295 6.80894C3.66308 6.67388 3.74467 6.48985 3.7504 6.29596C3.75613 6.10208 3.68554 5.91361 3.55364 5.77061C3.42173 5.62761 3.2389 5.54135 3.044 5.53016L3 5.52892ZM9.125 5.52892C9.22446 5.52892 9.31984 5.56817 9.39017 5.63804C9.46049 5.70792 9.5 5.80269 9.5 5.90151V6.64669C9.5 6.7455 9.46049 6.84027 9.39017 6.91015C9.31984 6.98002 9.22446 7.01928 9.125 7.01928C9.02554 7.01928 8.93016 6.98002 8.85984 6.91015C8.78951 6.84027 8.75 6.7455 8.75 6.64669V5.90151C8.75 5.80269 8.78951 5.70792 8.85984 5.63804C8.93016 5.56817 9.02554 5.52892 9.125 5.52892Z" fill="#A3A3A5"/>
</svg>
